# xmcd
# 
# Track frame offsets:
#     150
#     27520
#     47497
#     73127
#     94980
#     111702
#     138435
#     148102
#     179775
#     198910
#     225235
#     237337
#     276960
#     298132
#     320537
# 
# Disc length: 4561
# 
# Revision: 4
# Processed by: cddbd v1.5.2PL0 Copyright (c) Steve Scherf et al.
# Submitted via: fre:ac v1.0.31
# 
DISCID=f211cf0f
DTITLE=Various Artist - Narada Decade Disk 1
DYEAR=1993
DGENRE=New Age
TTITLE0=David Lanz - Cristofori's dream
TTITLE1=Friedemann - In the court of the mermaid
TTITLE2=Tingstad and Rumbel - Shenandoah
TTITLE3=Spencer Brewer - Tomorrow's child
TTITLE4=Trapezoid - Moon run
TTITLE5=Kostia - Girl from barcelona
TTITLE6=Gabriel Lee - Nature cycles variations
TTITLE7=Ancient Future - Hillside view
TTITLE8=David Lanz - Leaves on the seine
TTITLE9=Nando Lauria - Sonho (dream)
TTITLE10=Wayne Gratz - Circus
TTITLE11=Michael Jones - Water's edge
TTITLE12=Tingstad and Rumbel - Oaks
TTITLE13=Richard Souther - All the way home
TTITLE14=Arkenstone and White - Carnation Lily, Lily Rose
EXTD=
EXTT0=
EXTT1=
EXTT2=
EXTT3=
EXTT4=
EXTT5=
EXTT6=
EXTT7=
EXTT8=
EXTT9=
EXTT10=
EXTT11=
EXTT12=
EXTT13=
EXTT14=
PLAYORDER=
